<svg width="111" height="203" viewBox="0 0 111 203" fill="none" xmlns="http://www.w3.org/2000/svg">
<path d="M81.8134 83.282L85.2496 116.384L110.398 120.907L85.2496 125.43L81.8134 158.533L78.3773 125.43L53.2285 120.907L78.3773 116.384L81.8134 83.282Z" fill="#F6705F"/>
<path d="M82.5823 118.299L82.6212 118.673L82.9912 118.739L105.404 122.77L82.9912 126.801L82.6212 126.867L82.5823 127.241L79.6435 155.552L76.7047 127.241L76.6659 126.867L76.2959 126.801L53.8834 122.77L76.2959 118.739L76.6659 118.673L76.7047 118.299L79.6435 89.9872L82.5823 118.299Z" stroke="black"/>
<path d="M42.8704 0.654785L45.093 22.0663L61.3599 24.9919L45.093 27.9174L42.8704 49.3289L40.6478 27.9174L24.3809 24.9919L40.6478 22.0663L42.8704 0.654785Z" fill="#F6705F"/>
<path d="M43.1171 23.5958L43.1559 23.9697L43.5259 24.0362L57.0566 26.4696L43.5259 28.9031L43.1559 28.9696L43.1171 29.3435L41.3918 45.964L39.6666 29.3435L39.6278 28.9696L39.2578 28.9031L25.7271 26.4696L39.2578 24.0362L39.6278 23.9697L39.6666 23.5958L41.3918 6.97525L43.1171 23.5958Z" stroke="black"/>
<path d="M17.342 160.395L19.1685 177.991L32.5365 180.395L19.1685 182.799L17.342 200.395L15.5155 182.799L2.14746 180.395L15.5155 177.991L17.342 160.395Z" fill="#F6705F"/>
<path d="M16.9651 180.043L17.0039 180.417L17.3739 180.483L28.0057 182.395L17.3739 184.307L17.0039 184.374L16.9651 184.748L15.6359 197.553L14.3067 184.748L14.2679 184.374L13.8979 184.307L3.26619 182.395L13.8979 180.483L14.2679 180.417L14.3067 180.043L15.6359 167.238L16.9651 180.043Z" stroke="black"/>
</svg>
